<?xml version="1.0" encoding="UTF-8" standalone="no"?>
<!-- Created with Inkscape (http://www.inkscape.org/) -->

<svg
   width="210mm"
   height="297mm"
   viewBox="0 0 210 297"
   version="1.1"
   id="svg1"
   inkscape:version="1.3 (0e150ed, 2023-07-21)"
   sodipodi:docname="novemberpromo.svg"
   xmlns:inkscape="http://www.inkscape.org/namespaces/inkscape"
   xmlns:sodipodi="http://sodipodi.sourceforge.net/DTD/sodipodi-0.dtd"
   xmlns="http://www.w3.org/2000/svg"
   xmlns:svg="http://www.w3.org/2000/svg">
  <sodipodi:namedview
     id="namedview1"
     pagecolor="#505050"
     bordercolor="#ffffff"
     borderopacity="1"
     inkscape:showpageshadow="0"
     inkscape:pageopacity="0"
     inkscape:pagecheckerboard="1"
     inkscape:deskcolor="#d1d1d1"
     inkscape:document-units="mm"
     inkscape:zoom="0.5946522"
     inkscape:cx="474.22678"
     inkscape:cy="655.00472"
     inkscape:window-width="1680"
     inkscape:window-height="1050"
     inkscape:window-x="0"
     inkscape:window-y="0"
     inkscape:window-maximized="0"
     inkscape:current-layer="layer1" />
  <defs
     id="defs1" />
  <g
     inkscape:label="Layer 1"
     inkscape:groupmode="layer"
     id="layer1">
    <path
       id="path1"
       style="fill:#f9f9f9;stroke-width:0.251779;stroke-linecap:round;stroke-linejoin:round;stroke-dashoffset:248.706;paint-order:stroke fill markers"
       d="M 94.32623,41.89022 88.652117,66.095178 73.444318,46.249352 73.018399,71.084248 53.941746,54.77697 58.782583,79.156434 36.670868,67.100859 l 9.89618,22.858332 -24.180982,-7.276818 14.518903,20.337577 -25.192671,-2.17982 18.506355,16.92864 -25.1034658,3.0115 21.6857968,12.77983 -23.9174935,8.07218 23.9174935,8.07218 -21.6857968,12.77983 25.1034658,3.0115 -18.506355,16.92863 25.192671,-2.17981 -14.518903,20.33758 24.180982,-7.27682 -9.89618,22.85833 22.111715,-12.05558 -4.840837,24.37947 19.076653,-16.30728 0.425919,24.83489 15.207799,-19.84583 5.674113,24.20497 10.67377,-22.5174 10.67429,22.5174 5.67411,-24.20497 15.20781,19.84583 0.4254,-24.83489 19.07665,16.30728 -4.84084,-24.37947 22.11223,12.05558 -9.89617,-22.85833 24.18097,7.27682 -14.5189,-20.33758 25.19268,2.17981 -18.50688,-16.92863 25.10397,-3.0115 -21.68628,-12.77983 23.91747,-8.07218 -23.91747,-8.07218 21.68628,-12.77983 -25.10397,-3.0115 18.50688,-16.92864 -25.19268,2.17982 14.5189,-20.337577 -24.18097,7.276818 9.89617,-22.858332 -22.11223,12.055575 4.84084,-24.379464 -19.07665,16.307278 -0.4254,-24.834896 L 121.3484,66.095178 115.67429,41.89022 105,64.407609 Z M 105,66.940979 A 76.362956,74.691434 0 0 1 181.36334,141.63228 76.362956,74.691434 0 0 1 105,216.32358 76.362956,74.691434 0 0 1 28.637182,141.63228 76.362956,74.691434 0 0 1 105,66.940979 Z"
       inkscape:export-filename="novemberpromo.png"
       inkscape:export-xdpi="96"
       inkscape:export-ydpi="96" />
    <text
       xml:space="preserve"
       style="font-size:19.7098px;line-height:0.87;font-family:Skranji;-inkscape-font-specification:Skranji;text-align:center;text-anchor:middle;fill:#000000;stroke-width:0.349189;stroke-linecap:round;stroke-linejoin:round;stroke-dashoffset:248.706;paint-order:stroke fill markers"
       x="103.93108"
       y="117.31361"
       id="text2"
       transform="scale(1.0111276,0.98899487)"><tspan
         sodipodi:role="line"
         style="font-size:19.7098px;fill:#f2f2f2;stroke-width:0.349189"
         x="103.93108"
         y="117.31361"
         id="tspan3">Call In Special</tspan></text>
    <text
       xml:space="preserve"
       style="font-size:29.5647px;line-height:0.87;font-family:Skranji;-inkscape-font-specification:Skranji;text-align:center;text-anchor:middle;fill:#000000;stroke-width:0.349189;stroke-linecap:round;stroke-linejoin:round;stroke-dashoffset:248.706;paint-order:stroke fill markers"
       x="103.6207"
       y="145.02441"
       id="text4"
       transform="scale(1.0111276,0.98899487)"><tspan
         sodipodi:role="line"
         id="tspan4"
         style="font-size:29.5647px;fill:#f9f9f9;stroke-width:0.349189"
         x="103.6207"
         y="145.02441">Save 25%</tspan><tspan
         sodipodi:role="line"
         style="font-size:29.5647px;fill:#f9f9f9;stroke-width:0.349189"
         x="103.6207"
         y="170.7457"
         id="tspan5" /></text>
    <text
       xml:space="preserve"
       style="font-size:19.7098px;line-height:0.87;font-family:Skranji;-inkscape-font-specification:Skranji;text-align:center;text-anchor:middle;fill:#000000;stroke-width:0.349189;stroke-linecap:round;stroke-linejoin:round;stroke-dashoffset:248.706;paint-order:stroke fill markers"
       x="107.19359"
       y="176.60867"
       id="text6"
       transform="scale(1.0111276,0.98899487)"><tspan
         sodipodi:role="line"
         id="tspan6"
         style="font-size:19.7098px;fill:#f9f9f9;stroke-width:0.349189"
         x="107.19359"
         y="176.60867">All Through </tspan><tspan
         sodipodi:role="line"
         style="font-size:19.7098px;fill:#f9f9f9;stroke-width:0.349189"
         x="107.19359"
         y="193.7562"
         id="tspan7">November</tspan></text>
  </g>
</svg>
