<?xml version="1.0" encoding="UTF-8" standalone="no"?>
<!-- Created with Inkscape (http://www.inkscape.org/) -->

<svg
   width="300mm"
   height="300mm"
   viewBox="0 0 300 300.00001"
   version="1.1"
   id="svg1"
   xml:space="preserve"
   inkscape:version="1.3 (0e150ed, 2023-07-21)"
   sodipodi:docname="shieldlock.svg"
   xmlns:inkscape="http://www.inkscape.org/namespaces/inkscape"
   xmlns:sodipodi="http://sodipodi.sourceforge.net/DTD/sodipodi-0.dtd"
   xmlns="http://www.w3.org/2000/svg"
   xmlns:svg="http://www.w3.org/2000/svg"><sodipodi:namedview
     id="namedview1"
     pagecolor="#505050"
     bordercolor="#ffffff"
     borderopacity="1"
     inkscape:showpageshadow="0"
     inkscape:pageopacity="0"
     inkscape:pagecheckerboard="1"
     inkscape:deskcolor="#d1d1d1"
     inkscape:document-units="mm"
     inkscape:zoom="0.4204826"
     inkscape:cx="327.00521"
     inkscape:cy="621.90444"
     inkscape:window-width="1680"
     inkscape:window-height="1050"
     inkscape:window-x="0"
     inkscape:window-y="0"
     inkscape:window-maximized="0"
     inkscape:current-layer="layer1" /><defs
     id="defs1" /><g
     inkscape:label="Layer 1"
     inkscape:groupmode="layer"
     id="layer1"><path
       style="fill:#023040;fill-opacity:1;stroke-width:1.28106"
       d="M 142.71265,289.99578 C 96.347388,276.33233 67.540685,258.27784 49.342843,231.47658 37.919374,214.65242 30.492009,193.4476 26.493317,166.24214 23.20692,143.88285 21.943285,119.13054 21.787273,74.059322 L 21.708702,51.360561 44.587598,43.609455 C 57.170991,39.34635 85.922141,29.59728 108.47904,21.944864 c 22.5569,-7.652416 41.24134,-13.9134837 41.52097,-13.9134837 0.27963,0 18.96406,6.2610677 41.52096,13.9134837 22.5569,7.652416 51.30804,17.401486 63.89144,21.664591 l 22.87889,7.751106 -0.0785,22.698761 c -0.22304,64.437818 -3.04567,94.986368 -11.32003,122.513678 -8.02635,26.70219 -22.23233,47.32913 -43.36351,62.96338 -16.64841,12.31759 -38.34791,22.31294 -65.73341,30.27852 -3.82163,1.1116 -7.1772,2.07899 -7.45683,2.14977 -0.27963,0.0707 -3.71146,-0.81522 -7.6263,-1.96889 z m 87.27876,-116.9747 v -55.07883 h -12.0326 -12.03261 v -10.52071 c 0,-10.925975 -0.27012,-14.931035 -1.36521,-20.241582 -4.01386,-19.464845 -18.49037,-35.686243 -37.54468,-42.070025 -6.27215,-2.101358 -9.34168,-2.563846 -17.0163,-2.563846 -7.67464,0 -10.74417,0.462488 -17.01631,2.563846 -19.05431,6.383782 -33.530821,22.60518 -37.544676,42.070025 -1.095091,5.310547 -1.365217,9.315607 -1.365217,20.241582 v 10.52071 H 82.041202 70.008596 v 55.07883 55.07882 h 79.991414 79.9914 z m -88.54264,20.62839 -0.0919,-6.65681 -2.17182,-1.32022 c -3.8492,-2.33987 -6.29988,-4.92044 -8.30467,-8.74486 -1.64798,-3.14378 -2.3327,-6.03153 -2.3327,-9.83807 0,-3.80655 0.68472,-6.6943 2.3327,-9.83806 3.84833,-7.34125 10.88266,-11.61427 19.11964,-11.61427 8.23696,0 15.2713,4.27302 19.11962,11.61427 1.64799,3.14376 2.33271,6.03151 2.33271,9.83806 0,7.86944 -3.72869,14.38326 -10.63737,18.58293 l -2.17183,1.32022 -0.0918,6.65681 -0.0918,6.6568 h -8.45934 -8.45934 z M 112.4803,106.5028 c 0.11388,-6.2917 0.36731,-12.380215 0.56317,-13.530015 2.60558,-15.295652 13.41892,-27.170241 28.4254,-31.21513 2.86768,-0.772965 3.93434,-0.883418 8.53114,-0.883418 4.59679,0 5.66345,0.110427 8.53113,0.883418 6.89211,1.857713 12.62826,5.120402 17.41277,9.90427 4.68652,4.68588 8.0737,10.307598 9.80022,16.265454 1.38891,4.792836 1.55816,6.563486 1.77558,18.575421 l 0.20706,11.43945 h -37.72676 -37.72677 z"
       id="path1" /></g></svg>
